<svg width="60" height="84" viewBox="0 0 60 84" fill="none" xmlns="http://www.w3.org/2000/svg">
<g clip-path="url(#clip0_1606_18)">
<path opacity="0.6" d="M24.4944 2.54847L3.88189 23.04C0.474307 26.4276 0.474307 31.92 3.88189 35.3076L24.4944 55.7992C27.902 59.1868 33.4267 59.1868 36.8343 55.7992L57.4468 35.3076C60.8544 31.92 60.8544 26.4276 57.4468 23.0401L36.8343 2.54847C33.4267 -0.839126 27.9019 -0.839124 24.4944 2.54847Z" fill="#6CEEC7"/>
<g opacity="0.9">
<path opacity="0.8" d="M19.4192 65.1152C18.9127 65.1155 18.411 65.0161 17.9432 64.8229C17.4754 64.6296 17.0507 64.3462 16.6936 63.9891L8.95905 56.2296C8.5966 55.8769 8.30947 55.4551 8.11483 54.9895C7.92019 54.5239 7.82206 54.0241 7.8263 53.5199C7.83511 52.5149 8.24212 51.554 8.95905 50.8454L16.7644 43.0859C17.4986 42.3889 18.4748 42 19.49 42C20.5052 42 21.4814 42.3889 22.2157 43.0859L29.9502 50.8454C30.3098 51.2003 30.5952 51.6225 30.79 52.0875C30.9847 52.5526 31.085 53.0513 31.085 53.5551C31.085 54.0588 30.9847 54.5576 30.79 55.0227C30.5952 55.4877 30.3098 55.9099 29.9502 56.2648L22.1449 64.0243C21.4177 64.7327 20.4373 65.1251 19.4192 65.1152ZM19.4192 43.0155C19.0564 43.012 18.6967 43.0819 18.362 43.2211C18.0273 43.3602 17.7246 43.5657 17.4723 43.8249L9.64931 51.5844C9.1391 52.101 8.85325 52.796 8.85325 53.5199C8.85325 54.2438 9.1391 54.9388 9.64931 55.4554L17.4723 63.1621C17.9962 63.6611 18.6937 63.9397 19.4192 63.9397C20.1448 63.9397 20.8422 63.6611 21.3661 63.1621L29.1714 55.4026C29.4283 55.1491 29.6322 54.8476 29.7713 54.5154C29.9104 54.1832 29.982 53.8269 29.982 53.4671C29.982 53.1073 29.9104 52.751 29.7713 52.4188C29.6322 52.0867 29.4283 51.7851 29.1714 51.5316L21.3484 43.8073C21.0955 43.555 20.7948 43.3551 20.4636 43.2192C20.1325 43.0833 19.7775 43.0141 19.4192 43.0155Z" fill="#6CEEC7"/>
</g>
</g>
<defs>
<clipPath id="clip0_1606_18">
<rect width="60" height="84" fill="white"/>
</clipPath>
</defs>
</svg>
